# MagicaVoxel @ Ephtracy

# group
o 

# material
mtllib untitled-8.mtl
usemtl palette

# normals
vn -1 0 0
vn 1 0 0
vn 0 0 1
vn 0 0 -1
vn 0 -1 0
vn 0 1 0

# texcoords
vt 0.658203 0.5
vt 0.689453 0.5
vt 0.693359 0.5
vt 0.697266 0.5

# verts
v -0.4 1.1 0.3
v -0.4 1.1 -0.5
v -0.4 2.3 0.3
v -0.4 2.3 -0.5
v -0.3 1 0.2
v -0.3 1 -0.4
v -0.3 1.1 0.2
v -0.3 1.1 -0.4
v 0.2 1 0.2
v 0.2 1 -0.4
v 0.2 1.1 0.2
v 0.2 1.1 0
v 0.2 1.1 -0.2
v 0.2 1.1 -0.4
v 0.3 1.1 0.3
v 0.3 1.1 0
v 0.3 1.1 -0.2
v 0.3 1.1 -0.5
v 0.3 1.2 0.1
v 0.3 1.2 0
v 0.3 1.2 -0.2
v 0.3 1.2 -0.3
v 0.3 1.3 0.1
v 0.3 1.3 0
v 0.3 1.3 -0.2
v 0.3 1.3 -0.3
v 0.3 1.4 0.2
v 0.3 1.4 0
v 0.3 1.4 -0.2
v 0.3 1.4 -0.4
v 0.3 1.5 0
v 0.3 1.5 -0.2
v 0.3 2 0
v 0.3 2 -0.2
v 0.3 2.1 0.3
v 0.3 2.1 0.2
v 0.3 2.1 0
v 0.3 2.1 -0.2
v 0.3 2.1 -0.4
v 0.3 2.1 -0.5
v 0.3 2.2 0.3
v 0.3 2.2 0
v 0.3 2.2 -0.2
v 0.3 2.2 -0.5
v 0.3 2.3 0.3
v 0.3 2.3 -0.5
v 0.4 1.4 0.2
v 0.4 1.4 0
v 0.4 1.4 -0.2
v 0.4 1.4 -0.4
v 0.4 1.5 0.1
v 0.4 1.5 0
v 0.4 1.5 -0.2
v 0.4 1.5 -0.3
v 0.4 2 0.1
v 0.4 2 0
v 0.4 2 -0.2
v 0.4 2 -0.3
v 0.4 2.1 0.2
v 0.4 2.1 0
v 0.4 2.1 -0.2
v 0.4 2.1 -0.4
v -0.4 1.1 0.3
v -0.4 2.3 0.3
v 0.2 2.1 0.3
v 0.2 2.2 0.3
v 0.3 1.1 0.3
v 0.3 2.1 0.3
v 0.3 2.2 0.3
v 0.3 2.3 0.3
v -0.3 1 0.2
v -0.3 1.1 0.2
v 0.2 1 0.2
v 0.2 1.1 0.2
v 0.3 1.4 0.2
v 0.3 2.1 0.2
v 0.4 1.4 0.2
v 0.4 2.1 0.2
v 0.3 1.4 -0.2
v 0.3 1.5 -0.2
v 0.3 2 -0.2
v 0.3 2.1 -0.2
v 0.4 1.4 -0.2
v 0.4 1.5 -0.2
v 0.4 2 -0.2
v 0.4 2.1 -0.2
v 0.3 1.4 0
v 0.3 1.5 0
v 0.3 2 0
v 0.3 2.1 0
v 0.4 1.4 0
v 0.4 1.5 0
v 0.4 2 0
v 0.4 2.1 0
v -0.3 1 -0.4
v -0.3 1.1 -0.4
v 0.2 1 -0.4
v 0.2 1.1 -0.4
v 0.3 1.4 -0.4
v 0.3 2.1 -0.4
v 0.4 1.4 -0.4
v 0.4 2.1 -0.4
v -0.4 1.1 -0.5
v -0.4 2.3 -0.5
v 0.2 2.1 -0.5
v 0.2 2.2 -0.5
v 0.3 1.1 -0.5
v 0.3 2.1 -0.5
v 0.3 2.2 -0.5
v 0.3 2.3 -0.5
v -0.3 1 0.2
v 0.2 1 0.2
v -0.2 1 0.1
v 0.1 1 0.1
v -0.2 1 -0.3
v 0.1 1 -0.3
v -0.3 1 -0.4
v 0.2 1 -0.4
v -0.4 1.1 0.3
v 0.3 1.1 0.3
v -0.3 1.1 0.2
v 0.2 1.1 0.2
v 0.2 1.1 0
v 0.3 1.1 0
v 0.2 1.1 -0.2
v 0.3 1.1 -0.2
v -0.3 1.1 -0.4
v 0.2 1.1 -0.4
v -0.4 1.1 -0.5
v 0.3 1.1 -0.5
v 0.3 1.4 0.2
v 0.4 1.4 0.2
v 0.3 1.4 0
v 0.4 1.4 0
v 0.3 1.4 -0.2
v 0.4 1.4 -0.2
v 0.3 1.4 -0.4
v 0.4 1.4 -0.4
v 0.3 2.1 0.2
v 0.4 2.1 0.2
v 0.3 2.1 0
v 0.4 2.1 0
v 0.3 2.1 -0.2
v 0.4 2.1 -0.2
v 0.3 2.1 -0.4
v 0.4 2.1 -0.4
v -0.4 2.3 0.3
v 0.3 2.3 0.3
v -0.4 2.3 -0.5
v 0.3 2.3 -0.5

# faces
f 3/2/1 2/2/1 1/2/1
f 4/2/1 2/2/1 3/2/1
f 7/1/1 6/1/1 5/1/1
f 8/1/1 6/1/1 7/1/1
f 9/1/2 10/1/2 11/1/2
f 11/1/2 10/1/2 12/1/2
f 12/1/2 10/1/2 13/1/2
f 13/1/2 10/1/2 14/1/2
f 15/2/2 16/2/2 19/2/2
f 16/1/2 17/1/2 20/1/2
f 19/2/2 16/2/2 20/2/2
f 17/2/2 18/2/2 21/2/2
f 20/1/2 17/1/2 21/1/2
f 21/2/2 18/2/2 22/2/2
f 19/1/2 20/1/2 23/1/2
f 15/2/2 19/2/2 23/2/2
f 20/2/2 21/2/2 24/2/2
f 23/1/2 20/1/2 24/1/2
f 21/1/2 22/1/2 25/1/2
f 24/2/2 21/2/2 25/2/2
f 22/2/2 18/2/2 26/2/2
f 25/1/2 22/1/2 26/1/2
f 24/2/2 25/2/2 27/2/2
f 23/2/2 24/2/2 27/2/2
f 25/2/2 26/2/2 27/2/2
f 15/2/2 23/2/2 27/2/2
f 27/2/2 26/2/2 28/2/2
f 28/2/2 26/2/2 29/2/2
f 26/2/2 18/2/2 30/2/2
f 29/2/2 26/2/2 30/2/2
f 28/2/2 29/2/2 31/2/2
f 31/2/2 29/2/2 32/2/2
f 31/2/2 32/2/2 33/2/2
f 33/2/2 32/2/2 34/2/2
f 15/2/2 27/2/2 35/2/2
f 35/2/2 27/2/2 36/2/2
f 33/2/2 34/2/2 37/2/2
f 37/2/2 34/2/2 38/2/2
f 30/2/2 18/2/2 39/2/2
f 39/2/2 18/2/2 40/2/2
f 36/1/2 37/1/2 41/1/2
f 35/1/2 36/1/2 41/1/2
f 37/2/2 38/2/2 42/2/2
f 41/1/2 37/1/2 42/1/2
f 39/1/2 40/1/2 43/1/2
f 42/2/2 38/2/2 43/2/2
f 38/1/2 39/1/2 43/1/2
f 43/1/2 40/1/2 44/1/2
f 41/2/2 42/2/2 45/2/2
f 42/2/2 43/2/2 45/2/2
f 43/2/2 44/2/2 45/2/2
f 45/2/2 44/2/2 46/2/2
f 47/3/2 48/3/2 51/3/2
f 51/3/2 48/3/2 52/3/2
f 49/3/2 50/3/2 53/3/2
f 53/3/2 50/3/2 54/3/2
f 51/4/2 52/4/2 55/4/2
f 47/3/2 51/3/2 55/3/2
f 55/4/2 52/4/2 56/4/2
f 53/4/2 54/4/2 57/4/2
f 54/3/2 50/3/2 58/3/2
f 57/4/2 54/4/2 58/4/2
f 55/3/2 56/3/2 59/3/2
f 47/3/2 55/3/2 59/3/2
f 59/3/2 56/3/2 60/3/2
f 57/3/2 58/3/2 61/3/2
f 58/3/2 50/3/2 62/3/2
f 61/3/2 58/3/2 62/3/2
f 65/2/3 64/2/3 63/2/3
f 66/2/3 64/2/3 65/2/3
f 67/2/3 65/2/3 63/2/3
f 68/1/3 66/1/3 65/1/3
f 68/2/3 65/2/3 67/2/3
f 69/2/3 64/2/3 66/2/3
f 69/1/3 66/1/3 68/1/3
f 70/2/3 64/2/3 69/2/3
f 73/1/3 72/1/3 71/1/3
f 74/1/3 72/1/3 73/1/3
f 77/3/3 76/3/3 75/3/3
f 78/3/3 76/3/3 77/3/3
f 83/3/3 80/3/3 79/3/3
f 84/4/3 81/4/3 80/4/3
f 84/3/3 80/3/3 83/3/3
f 85/3/3 82/3/3 81/3/3
f 85/4/3 81/4/3 84/4/3
f 86/3/3 82/3/3 85/3/3
f 87/3/4 88/3/4 91/3/4
f 88/4/4 89/4/4 92/4/4
f 91/3/4 88/3/4 92/3/4
f 89/3/4 90/3/4 93/3/4
f 92/4/4 89/4/4 93/4/4
f 93/3/4 90/3/4 94/3/4
f 95/1/4 96/1/4 97/1/4
f 97/1/4 96/1/4 98/1/4
f 99/3/4 100/3/4 101/3/4
f 101/3/4 100/3/4 102/3/4
f 103/2/4 104/2/4 105/2/4
f 105/2/4 104/2/4 106/2/4
f 103/2/4 105/2/4 107/2/4
f 105/1/4 106/1/4 108/1/4
f 107/2/4 105/2/4 108/2/4
f 106/2/4 104/2/4 109/2/4
f 108/1/4 106/1/4 109/1/4
f 109/2/4 104/2/4 110/2/4
f 113/1/5 112/1/5 111/1/5
f 114/1/5 112/1/5 113/1/5
f 115/1/5 113/1/5 111/1/5
f 115/2/5 114/2/5 113/2/5
f 116/1/5 112/1/5 114/1/5
f 116/2/5 114/2/5 115/2/5
f 117/1/5 115/1/5 111/1/5
f 117/1/5 116/1/5 115/1/5
f 118/1/5 112/1/5 116/1/5
f 118/1/5 116/1/5 117/1/5
f 121/2/5 120/2/5 119/2/5
f 122/2/5 120/2/5 121/2/5
f 123/2/5 120/2/5 122/2/5
f 124/2/5 120/2/5 123/2/5
f 125/1/5 124/1/5 123/1/5
f 126/1/5 124/1/5 125/1/5
f 127/2/5 121/2/5 119/2/5
f 128/2/5 126/2/5 125/2/5
f 129/2/5 127/2/5 119/2/5
f 129/2/5 128/2/5 127/2/5
f 130/2/5 126/2/5 128/2/5
f 130/2/5 128/2/5 129/2/5
f 133/3/5 132/3/5 131/3/5
f 134/3/5 132/3/5 133/3/5
f 137/3/5 136/3/5 135/3/5
f 138/3/5 136/3/5 137/3/5
f 139/3/6 140/3/6 141/3/6
f 141/3/6 140/3/6 142/3/6
f 143/3/6 144/3/6 145/3/6
f 145/3/6 144/3/6 146/3/6
f 147/2/6 148/2/6 149/2/6
f 149/2/6 148/2/6 150/2/6
