# MagicaVoxel @ Ephtracy

# group
o 

# material
mtllib untitled-4.mtl
usemtl palette

# normals
vn -1 0 0
vn 1 0 0
vn 0 0 1
vn 0 0 -1
vn 0 -1 0
vn 0 1 0

# texcoords
vt 0.658203 0.5
vt 0.662109 0.5
vt 0.666016 0.5
vt 0.689453 0.5

# verts
v -0.6 0.9 0.3
v -0.6 0.9 -0.5
v -0.6 1.5 0.6
v -0.6 1.5 0.3
v -0.6 1.5 -0.5
v -0.6 1.5 -0.8
v -0.6 2.2 0.6
v -0.6 2.2 -0.8
v -0.5 0.9 0.4
v -0.5 0.9 0.3
v -0.5 0.9 -0.5
v -0.5 0.9 -0.6
v -0.5 1.4 0.5
v -0.5 1.4 0.4
v -0.5 1.4 -0.6
v -0.5 1.4 -0.7
v -0.5 1.5 0.5
v -0.5 1.5 0.3
v -0.5 1.5 -0.5
v -0.5 1.5 -0.7
v -0.5 2.2 0.5
v -0.5 2.2 -0.7
v -0.5 2.3 0.5
v -0.5 2.3 -0.7
v 0.6 0.9 0.4
v 0.6 0.9 0.3
v 0.6 0.9 -0.5
v 0.6 0.9 -0.6
v 0.6 1.4 0.5
v 0.6 1.4 0.4
v 0.6 1.4 -0.6
v 0.6 1.4 -0.7
v 0.6 1.5 0.5
v 0.6 1.5 0.3
v 0.6 1.5 -0.5
v 0.6 1.5 -0.7
v 0.6 2.2 0.5
v 0.6 2.2 -0.7
v 0.6 2.3 0.5
v 0.6 2.3 -0.7
v 0.7 0.9 0.3
v 0.7 0.9 -0.5
v 0.7 1.5 0.6
v 0.7 1.5 0.3
v 0.7 1.5 -0.5
v 0.7 1.5 -0.8
v 0.7 2 -0.1
v 0.7 2 -0.2
v 0.7 2 -0.3
v 0.7 2 -0.4
v 0.7 2 -0.5
v 0.7 2 -0.6
v 0.7 2.1 -0.1
v 0.7 2.1 -0.2
v 0.7 2.1 -0.3
v 0.7 2.1 -0.4
v 0.7 2.1 -0.5
v 0.7 2.1 -0.6
v 0.7 2.2 0.6
v 0.7 2.2 -0.8
v -0.6 1.5 0.6
v -0.6 2.2 0.6
v 0.7 1.5 0.6
v 0.7 2.2 0.6
v -0.5 1.4 0.5
v -0.5 1.5 0.5
v -0.5 2.2 0.5
v -0.5 2.3 0.5
v 0.6 1.4 0.5
v 0.6 1.5 0.5
v 0.6 2.2 0.5
v 0.6 2.3 0.5
v -0.5 0.9 0.4
v -0.5 1.4 0.4
v 0.6 0.9 0.4
v 0.6 1.4 0.4
v -0.6 0.9 0.3
v -0.6 1.5 0.3
v -0.5 0.9 0.3
v -0.5 1.5 0.3
v 0.6 0.9 0.3
v 0.6 1.5 0.3
v 0.7 0.9 0.3
v 0.7 1.5 0.3
v -0.6 0.9 -0.5
v -0.6 1.5 -0.5
v -0.5 0.9 -0.5
v -0.5 1.5 -0.5
v 0.6 0.9 -0.5
v 0.6 1.5 -0.5
v 0.7 0.9 -0.5
v 0.7 1.5 -0.5
v -0.5 0.9 -0.6
v -0.5 1.4 -0.6
v 0.6 0.9 -0.6
v 0.6 1.4 -0.6
v -0.5 1.4 -0.7
v -0.5 1.5 -0.7
v -0.5 2.2 -0.7
v -0.5 2.3 -0.7
v 0.6 1.4 -0.7
v 0.6 1.5 -0.7
v 0.6 2.2 -0.7
v 0.6 2.3 -0.7
v -0.6 1.5 -0.8
v -0.6 2.2 -0.8
v -0.1 1.8 -0.8
v -0.1 2 -0.8
v 0.1 1.8 -0.8
v 0.1 2 -0.8
v 0.7 1.5 -0.8
v 0.7 2.2 -0.8
v -0.5 0.9 0.4
v 0.6 0.9 0.4
v -0.6 0.9 0.3
v -0.5 0.9 0.3
v 0.6 0.9 0.3
v 0.7 0.9 0.3
v -0.6 0.9 -0.5
v -0.5 0.9 -0.5
v 0.6 0.9 -0.5
v 0.7 0.9 -0.5
v -0.5 0.9 -0.6
v 0.6 0.9 -0.6
v -0.5 1.4 0.5
v 0.6 1.4 0.5
v -0.5 1.4 0.4
v 0.6 1.4 0.4
v -0.5 1.4 -0.6
v 0.6 1.4 -0.6
v -0.5 1.4 -0.7
v 0.6 1.4 -0.7
v -0.6 1.5 0.6
v 0.7 1.5 0.6
v -0.5 1.5 0.5
v 0.6 1.5 0.5
v -0.6 1.5 0.3
v -0.5 1.5 0.3
v 0.6 1.5 0.3
v 0.7 1.5 0.3
v -0.6 1.5 -0.5
v -0.5 1.5 -0.5
v 0.6 1.5 -0.5
v 0.7 1.5 -0.5
v -0.5 1.5 -0.7
v 0.6 1.5 -0.7
v -0.6 1.5 -0.8
v 0.7 1.5 -0.8
v -0.6 2.2 0.6
v 0.7 2.2 0.6
v -0.5 2.2 0.5
v 0.6 2.2 0.5
v -0.5 2.2 -0.7
v 0.6 2.2 -0.7
v -0.6 2.2 -0.8
v 0.7 2.2 -0.8
v -0.5 2.3 0.5
v 0.6 2.3 0.5
v -0.5 2.3 -0.7
v 0.6 2.3 -0.7

# faces
f 4/4/1 2/4/1 1/4/1
f 5/4/1 2/4/1 4/4/1
f 7/4/1 4/4/1 3/4/1
f 7/4/1 6/4/1 5/4/1
f 7/4/1 5/4/1 4/4/1
f 8/4/1 6/4/1 7/4/1
f 14/1/1 10/1/1 9/1/1
f 15/1/1 12/1/1 11/1/1
f 17/1/1 14/1/1 13/1/1
f 18/1/1 10/1/1 14/1/1
f 18/1/1 14/1/1 17/1/1
f 19/1/1 16/1/1 15/1/1
f 19/1/1 15/1/1 11/1/1
f 20/1/1 16/1/1 19/1/1
f 23/4/1 22/4/1 21/4/1
f 24/4/1 22/4/1 23/4/1
f 25/1/2 26/1/2 30/1/2
f 27/1/2 28/1/2 31/1/2
f 29/1/2 30/1/2 33/1/2
f 30/1/2 26/1/2 34/1/2
f 33/1/2 30/1/2 34/1/2
f 31/1/2 32/1/2 35/1/2
f 27/1/2 31/1/2 35/1/2
f 35/1/2 32/1/2 36/1/2
f 37/4/2 38/4/2 39/4/2
f 39/4/2 38/4/2 40/4/2
f 41/4/2 42/4/2 44/4/2
f 44/4/2 42/4/2 45/4/2
f 43/4/2 44/4/2 47/4/2
f 45/4/2 46/4/2 47/4/2
f 44/4/2 45/4/2 47/4/2
f 47/4/2 46/4/2 48/4/2
f 48/4/2 46/4/2 49/4/2
f 49/4/2 46/4/2 50/4/2
f 50/4/2 46/4/2 51/4/2
f 51/4/2 46/4/2 52/4/2
f 43/4/2 47/4/2 53/4/2
f 47/3/2 48/3/2 53/3/2
f 48/4/2 49/4/2 54/4/2
f 53/3/2 48/3/2 54/3/2
f 49/2/2 50/2/2 55/2/2
f 54/4/2 49/4/2 55/4/2
f 50/4/2 51/4/2 56/4/2
f 55/2/2 50/2/2 56/2/2
f 51/2/2 52/2/2 57/2/2
f 56/4/2 51/4/2 57/4/2
f 52/4/2 46/4/2 58/4/2
f 57/2/2 52/2/2 58/2/2
f 56/4/2 57/4/2 59/4/2
f 55/4/2 56/4/2 59/4/2
f 57/4/2 58/4/2 59/4/2
f 54/4/2 55/4/2 59/4/2
f 53/4/2 54/4/2 59/4/2
f 43/4/2 53/4/2 59/4/2
f 58/4/2 46/4/2 60/4/2
f 59/4/2 58/4/2 60/4/2
f 63/4/3 62/4/3 61/4/3
f 64/4/3 62/4/3 63/4/3
f 69/1/3 66/1/3 65/1/3
f 70/1/3 66/1/3 69/1/3
f 71/4/3 68/4/3 67/4/3
f 72/4/3 68/4/3 71/4/3
f 75/1/3 74/1/3 73/1/3
f 76/1/3 74/1/3 75/1/3
f 79/4/3 78/4/3 77/4/3
f 80/4/3 78/4/3 79/4/3
f 83/4/3 82/4/3 81/4/3
f 84/4/3 82/4/3 83/4/3
f 85/4/4 86/4/4 87/4/4
f 87/4/4 86/4/4 88/4/4
f 89/4/4 90/4/4 91/4/4
f 91/4/4 90/4/4 92/4/4
f 93/1/4 94/1/4 95/1/4
f 95/1/4 94/1/4 96/1/4
f 97/1/4 98/1/4 101/1/4
f 101/1/4 98/1/4 102/1/4
f 99/4/4 100/4/4 103/4/4
f 103/4/4 100/4/4 104/4/4
f 105/4/4 106/4/4 107/4/4
f 107/4/4 106/4/4 108/4/4
f 105/4/4 107/4/4 109/4/4
f 107/1/4 108/1/4 109/1/4
f 108/4/4 106/4/4 110/4/4
f 109/1/4 108/1/4 110/1/4
f 105/4/4 109/4/4 111/4/4
f 109/4/4 110/4/4 111/4/4
f 110/4/4 106/4/4 112/4/4
f 111/4/4 110/4/4 112/4/4
f 116/1/5 114/1/5 113/1/5
f 117/1/5 114/1/5 116/1/5
f 119/4/5 116/4/5 115/4/5
f 119/4/5 118/4/5 117/4/5
f 119/4/5 117/4/5 116/4/5
f 120/4/5 118/4/5 119/4/5
f 121/4/5 118/4/5 120/4/5
f 122/4/5 118/4/5 121/4/5
f 123/1/5 121/1/5 120/1/5
f 124/1/5 121/1/5 123/1/5
f 127/1/5 126/1/5 125/1/5
f 128/1/5 126/1/5 127/1/5
f 131/1/5 130/1/5 129/1/5
f 132/1/5 130/1/5 131/1/5
f 135/4/5 134/4/5 133/4/5
f 136/4/5 134/4/5 135/4/5
f 137/4/5 135/4/5 133/4/5
f 138/4/5 135/4/5 137/4/5
f 139/4/5 134/4/5 136/4/5
f 140/4/5 134/4/5 139/4/5
f 145/4/5 142/4/5 141/4/5
f 146/4/5 144/4/5 143/4/5
f 147/4/5 145/4/5 141/4/5
f 147/4/5 146/4/5 145/4/5
f 148/4/5 144/4/5 146/4/5
f 148/4/5 146/4/5 147/4/5
f 149/4/6 150/4/6 151/4/6
f 151/4/6 150/4/6 152/4/6
f 149/4/6 151/4/6 153/4/6
f 152/4/6 150/4/6 154/4/6
f 149/4/6 153/4/6 155/4/6
f 153/4/6 154/4/6 155/4/6
f 154/4/6 150/4/6 156/4/6
f 155/4/6 154/4/6 156/4/6
f 157/4/6 158/4/6 159/4/6
f 159/4/6 158/4/6 160/4/6
