# MagicaVoxel @ Ephtracy

# group
o 

# material
mtllib untitled-5.mtl
usemtl palette

# normals
vn -1 0 0
vn 1 0 0
vn 0 0 1
vn 0 0 -1
vn 0 -1 0
vn 0 1 0

# texcoords
vt 0.689453 0.5
vt 0.701172 0.5
vt 0.705078 0.5
vt 0.708984 0.5

# verts
v -0.9 1.3 0.1
v -0.9 1.3 -0.3
v -0.9 1.9 0.1
v -0.9 1.9 -0.3
v -0.8 1.2 0.1
v -0.8 1.2 -0.3
v -0.8 1.3 0.1
v -0.8 1.3 -0.3
v -0.8 1.9 0.1
v -0.8 1.9 -0.3
v -0.8 2 0.1
v -0.8 2 -0.3
v -0.7 1.4 -0.1
v -0.7 1.4 -0.2
v -0.7 1.5 -0.1
v -0.7 1.5 -0.2
v -0.7 1.7 -0.1
v -0.7 1.7 -0.2
v -0.7 1.8 -0.1
v -0.7 1.8 -0.2
v -0.6 1.5 -0.1
v -0.6 1.5 -0.2
v -0.6 1.7 -0.1
v -0.6 1.7 -0.2
v -0.4 1.4 -0.1
v -0.4 1.4 -0.2
v -0.4 1.5 -0.1
v -0.4 1.5 -0.2
v -0.4 1.7 -0.1
v -0.4 1.7 -0.2
v -0.4 1.8 -0.1
v -0.4 1.8 -0.2
v -0.3 1.3 -0.1
v -0.3 1.3 -0.2
v -0.3 1.3 -0.3
v -0.3 1.4 -0.1
v -0.3 1.4 -0.2
v -0.3 1.4 -0.3
v -0.3 1.8 -0.1
v -0.3 1.8 -0.2
v -0.3 1.8 -0.3
v -0.3 1.9 -0.1
v -0.3 1.9 -0.2
v -0.3 1.9 -0.3
v -0.2 1.4 -0.1
v -0.2 1.4 -0.2
v -0.2 1.4 -0.3
v -0.2 1.8 -0.1
v -0.2 1.8 -0.2
v -0.2 1.8 -0.3
v 0 1.6 -0.1
v 0 1.6 -0.2
v 0 1.7 -0.1
v 0 1.7 -0.2
v 0 1.8 -0.1
v 0 1.8 -0.2
v 0 1.9 -0.1
v 0 1.9 -0.2
v 0.1 1.7 -0.1
v 0.1 1.7 -0.2
v 0.1 1.8 -0.1
v 0.1 1.8 -0.2
v 0.2 1.4 -0.1
v 0.2 1.4 -0.2
v 0.2 1.4 -0.3
v 0.2 1.5 -0.1
v 0.2 1.7 -0.1
v 0.2 1.7 -0.2
v 0.2 1.8 -0.2
v 0.2 1.8 -0.3
v 0.3 1.3 -0.1
v 0.3 1.3 -0.2
v 0.3 1.3 -0.3
v 0.3 1.4 -0.1
v 0.3 1.4 -0.2
v 0.3 1.4 -0.3
v 0.3 1.8 -0.1
v 0.3 1.8 -0.2
v 0.3 1.8 -0.3
v 0.3 1.9 -0.1
v 0.3 1.9 -0.2
v 0.3 1.9 -0.3
v 0.4 1.4 -0.1
v 0.4 1.4 -0.2
v 0.4 1.5 -0.1
v 0.4 1.5 -0.2
v 0.4 1.7 -0.1
v 0.4 1.7 -0.2
v 0.4 1.8 -0.1
v 0.4 1.8 -0.2
v 0.5 1.5 -0.1
v 0.5 1.5 -0.2
v 0.5 1.7 -0.1
v 0.5 1.7 -0.2
v 0.7 1.4 -0.1
v 0.7 1.4 -0.2
v 0.7 1.5 -0.1
v 0.7 1.5 -0.2
v 0.7 1.7 -0.1
v 0.7 1.7 -0.2
v 0.7 1.8 -0.1
v 0.7 1.8 -0.2
v 0.8 1.3 -0.1
v 0.8 1.3 -0.2
v 0.8 1.3 -0.3
v 0.8 1.4 -0.1
v 0.8 1.4 -0.2
v 0.8 1.4 -0.3
v 0.8 1.8 -0.1
v 0.8 1.8 -0.2
v 0.8 1.8 -0.3
v 0.8 1.9 -0.1
v 0.8 1.9 -0.3
v 0.9 1.4 -0.1
v 0.9 1.4 -0.3
v 0.9 1.8 -0.1
v 0.9 1.8 -0.3
v -0.8 1.4 -0.1
v -0.8 1.4 -0.3
v -0.8 1.8 -0.1
v -0.8 1.8 -0.3
v -0.7 1.3 -0.1
v -0.7 1.3 -0.2
v -0.7 1.3 -0.3
v -0.7 1.4 -0.1
v -0.7 1.4 -0.2
v -0.7 1.4 -0.3
v -0.7 1.8 -0.1
v -0.7 1.8 -0.2
v -0.7 1.8 -0.3
v -0.7 1.9 -0.1
v -0.7 1.9 -0.3
v -0.6 1.4 -0.1
v -0.6 1.4 -0.2
v -0.6 1.5 -0.1
v -0.6 1.5 -0.2
v -0.6 1.7 -0.1
v -0.6 1.7 -0.2
v -0.6 1.8 -0.1
v -0.6 1.8 -0.2
v -0.4 1.5 -0.1
v -0.4 1.5 -0.2
v -0.4 1.7 -0.1
v -0.4 1.7 -0.2
v -0.3 1.4 -0.1
v -0.3 1.4 -0.2
v -0.3 1.5 -0.1
v -0.3 1.5 -0.2
v -0.3 1.7 -0.1
v -0.3 1.7 -0.2
v -0.3 1.8 -0.1
v -0.3 1.8 -0.2
v -0.2 1.3 -0.1
v -0.2 1.3 -0.2
v -0.2 1.3 -0.3
v -0.2 1.4 -0.1
v -0.2 1.4 -0.2
v -0.2 1.4 -0.3
v -0.2 1.8 -0.1
v -0.2 1.8 -0.2
v -0.2 1.8 -0.3
v -0.2 1.9 -0.1
v -0.2 1.9 -0.2
v -0.2 1.9 -0.3
v -0.1 1.4 -0.1
v -0.1 1.4 -0.2
v -0.1 1.4 -0.3
v -0.1 1.7 -0.1
v -0.1 1.7 -0.2
v -0.1 1.8 -0.2
v -0.1 1.8 -0.3
v 0 1.7 -0.1
v 0 1.7 -0.2
v 0 1.8 -0.1
v 0 1.8 -0.2
v 0.1 1.6 -0.1
v 0.1 1.6 -0.2
v 0.1 1.7 -0.1
v 0.1 1.7 -0.2
v 0.1 1.8 -0.1
v 0.1 1.8 -0.2
v 0.1 1.9 -0.1
v 0.1 1.9 -0.2
v 0.3 1.4 -0.1
v 0.3 1.4 -0.2
v 0.3 1.4 -0.3
v 0.3 1.5 -0.1
v 0.3 1.8 -0.1
v 0.3 1.8 -0.2
v 0.3 1.8 -0.3
v 0.4 1.3 -0.1
v 0.4 1.3 -0.2
v 0.4 1.3 -0.3
v 0.4 1.4 -0.1
v 0.4 1.4 -0.2
v 0.4 1.4 -0.3
v 0.4 1.8 -0.1
v 0.4 1.8 -0.2
v 0.4 1.8 -0.3
v 0.4 1.9 -0.1
v 0.4 1.9 -0.2
v 0.4 1.9 -0.3
v 0.5 1.4 -0.1
v 0.5 1.4 -0.2
v 0.5 1.5 -0.1
v 0.5 1.5 -0.2
v 0.5 1.7 -0.1
v 0.5 1.7 -0.2
v 0.5 1.8 -0.1
v 0.5 1.8 -0.2
v 0.7 1.5 -0.1
v 0.7 1.5 -0.2
v 0.7 1.7 -0.1
v 0.7 1.7 -0.2
v 0.8 1.2 0.1
v 0.8 1.2 0
v 0.8 1.3 0.1
v 0.8 1.3 0
v 0.8 1.4 -0.1
v 0.8 1.4 -0.2
v 0.8 1.5 -0.1
v 0.8 1.5 -0.2
v 0.8 1.7 -0.1
v 0.8 1.7 -0.2
v 0.8 1.8 -0.1
v 0.8 1.8 -0.2
v 0.8 1.9 0.1
v 0.8 1.9 0
v 0.8 2 0.1
v 0.8 2 0
v 0.9 1.2 0
v 0.9 1.2 -0.3
v 0.9 1.3 0.1
v 0.9 1.3 0
v 0.9 1.3 -0.3
v 0.9 1.9 0.1
v 0.9 1.9 0
v 0.9 1.9 -0.3
v 0.9 2 0
v 0.9 2 -0.3
v 1 1.3 0
v 1 1.3 -0.3
v 1 1.9 0
v 1 1.9 -0.3
v -0.9 1.3 0.1
v -0.9 1.9 0.1
v -0.8 1.2 0.1
v -0.8 1.3 0.1
v -0.8 1.9 0.1
v -0.8 2 0.1
v 0.8 1.2 0.1
v 0.8 1.3 0.1
v 0.8 1.9 0.1
v 0.8 2 0.1
v 0.9 1.3 0.1
v 0.9 1.9 0.1
v 0.8 1.2 0
v 0.8 1.3 0
v 0.8 1.9 0
v 0.8 2 0
v 0.9 1.2 0
v 0.9 1.3 0
v 0.9 1.9 0
v 0.9 2 0
v 1 1.3 0
v 1 1.9 0
v -0.8 1.4 -0.1
v -0.8 1.8 -0.1
v -0.7 1.3 -0.1
v -0.7 1.4 -0.1
v -0.7 1.5 -0.1
v -0.7 1.7 -0.1
v -0.7 1.8 -0.1
v -0.7 1.9 -0.1
v -0.6 1.4 -0.1
v -0.6 1.5 -0.1
v -0.6 1.7 -0.1
v -0.6 1.8 -0.1
v -0.4 1.4 -0.1
v -0.4 1.5 -0.1
v -0.4 1.7 -0.1
v -0.4 1.8 -0.1
v -0.3 1.3 -0.1
v -0.3 1.4 -0.1
v -0.3 1.5 -0.1
v -0.3 1.7 -0.1
v -0.3 1.8 -0.1
v -0.3 1.9 -0.1
v -0.2 1.3 -0.1
v -0.2 1.4 -0.1
v -0.2 1.8 -0.1
v -0.2 1.9 -0.1
v -0.1 1.4 -0.1
v -0.1 1.7 -0.1
v -0.1 1.8 -0.1
v 0 1.5 -0.1
v 0 1.6 -0.1
v 0 1.7 -0.1
v 0 1.8 -0.1
v 0 1.9 -0.1
v 0.1 1.6 -0.1
v 0.1 1.7 -0.1
v 0.1 1.8 -0.1
v 0.1 1.9 -0.1
v 0.2 1.4 -0.1
v 0.2 1.5 -0.1
v 0.2 1.7 -0.1
v 0.2 1.8 -0.1
v 0.3 1.3 -0.1
v 0.3 1.4 -0.1
v 0.3 1.5 -0.1
v 0.3 1.8 -0.1
v 0.3 1.9 -0.1
v 0.4 1.3 -0.1
v 0.4 1.4 -0.1
v 0.4 1.5 -0.1
v 0.4 1.7 -0.1
v 0.4 1.8 -0.1
v 0.4 1.9 -0.1
v 0.5 1.4 -0.1
v 0.5 1.5 -0.1
v 0.5 1.7 -0.1
v 0.5 1.8 -0.1
v 0.7 1.4 -0.1
v 0.7 1.5 -0.1
v 0.7 1.7 -0.1
v 0.7 1.8 -0.1
v 0.7 1.9 -0.1
v 0.8 1.3 -0.1
v 0.8 1.4 -0.1
v 0.8 1.5 -0.1
v 0.8 1.7 -0.1
v 0.8 1.8 -0.1
v 0.8 1.9 -0.1
v 0.9 1.4 -0.1
v 0.9 1.8 -0.1
v -0.7 1.4 -0.2
v -0.7 1.5 -0.2
v -0.7 1.7 -0.2
v -0.7 1.8 -0.2
v -0.6 1.4 -0.2
v -0.6 1.5 -0.2
v -0.6 1.7 -0.2
v -0.6 1.8 -0.2
v -0.4 1.4 -0.2
v -0.4 1.5 -0.2
v -0.4 1.7 -0.2
v -0.4 1.8 -0.2
v -0.3 1.4 -0.2
v -0.3 1.5 -0.2
v -0.3 1.7 -0.2
v -0.3 1.8 -0.2
v -0.1 1.7 -0.2
v -0.1 1.8 -0.2
v 0 1.6 -0.2
v 0 1.7 -0.2
v 0 1.8 -0.2
v 0 1.9 -0.2
v 0.1 1.6 -0.2
v 0.1 1.7 -0.2
v 0.1 1.8 -0.2
v 0.1 1.9 -0.2
v 0.2 1.7 -0.2
v 0.2 1.8 -0.2
v 0.4 1.4 -0.2
v 0.4 1.5 -0.2
v 0.4 1.7 -0.2
v 0.4 1.8 -0.2
v 0.5 1.4 -0.2
v 0.5 1.5 -0.2
v 0.5 1.7 -0.2
v 0.5 1.8 -0.2
v 0.7 1.4 -0.2
v 0.7 1.5 -0.2
v 0.7 1.7 -0.2
v 0.7 1.8 -0.2
v 0.8 1.4 -0.2
v 0.8 1.5 -0.2
v 0.8 1.7 -0.2
v 0.8 1.8 -0.2
v -0.9 1.3 -0.3
v -0.9 1.9 -0.3
v -0.8 1.2 -0.3
v -0.8 1.3 -0.3
v -0.8 1.4 -0.3
v -0.8 1.8 -0.3
v -0.8 1.9 -0.3
v -0.8 2 -0.3
v -0.7 1.3 -0.3
v -0.7 1.4 -0.3
v -0.7 1.8 -0.3
v -0.7 1.9 -0.3
v -0.3 1.3 -0.3
v -0.3 1.4 -0.3
v -0.3 1.8 -0.3
v -0.3 1.9 -0.3
v -0.2 1.3 -0.3
v -0.2 1.4 -0.3
v -0.2 1.8 -0.3
v -0.2 1.9 -0.3
v -0.1 1.4 -0.3
v -0.1 1.8 -0.3
v 0.2 1.4 -0.3
v 0.2 1.8 -0.3
v 0.3 1.3 -0.3
v 0.3 1.4 -0.3
v 0.3 1.8 -0.3
v 0.3 1.9 -0.3
v 0.4 1.3 -0.3
v 0.4 1.4 -0.3
v 0.4 1.8 -0.3
v 0.4 1.9 -0.3
v 0.8 1.3 -0.3
v 0.8 1.4 -0.3
v 0.8 1.8 -0.3
v 0.8 1.9 -0.3
v 0.9 1.2 -0.3
v 0.9 1.3 -0.3
v 0.9 1.4 -0.3
v 0.9 1.8 -0.3
v 0.9 1.9 -0.3
v 0.9 2 -0.3
v 1 1.3 -0.3
v 1 1.9 -0.3
v -0.8 1.2 0.1
v 0.8 1.2 0.1
v -0.7 1.2 0
v -0.2 1.2 0
v 0.3 1.2 0
v 0.8 1.2 0
v 0.9 1.2 0
v -0.7 1.2 -0.1
v -0.3 1.2 -0.1
v 0.4 1.2 -0.1
v 0.8 1.2 -0.1
v -0.7 1.2 -0.2
v -0.3 1.2 -0.2
v -0.2 1.2 -0.2
v 0.3 1.2 -0.2
v 0.4 1.2 -0.2
v 0.8 1.2 -0.2
v -0.8 1.2 -0.3
v 0.9 1.2 -0.3
v -0.9 1.3 0.1
v -0.8 1.3 0.1
v 0.8 1.3 0.1
v 0.9 1.3 0.1
v 0.8 1.3 0
v 0.9 1.3 0
v 1 1.3 0
v -0.9 1.3 -0.3
v -0.8 1.3 -0.3
v 0.9 1.3 -0.3
v 1 1.3 -0.3
v -0.7 1.4 -0.1
v -0.6 1.4 -0.1
v -0.4 1.4 -0.1
v -0.3 1.4 -0.1
v -0.2 1.4 -0.1
v -0.1 1.4 -0.1
v 0.2 1.4 -0.1
v 0.3 1.4 -0.1
v 0.4 1.4 -0.1
v 0.5 1.4 -0.1
v 0.7 1.4 -0.1
v 0.8 1.4 -0.1
v -0.7 1.4 -0.2
v -0.6 1.4 -0.2
v -0.4 1.4 -0.2
v -0.3 1.4 -0.2
v -0.2 1.4 -0.2
v -0.1 1.4 -0.2
v 0.2 1.4 -0.2
v 0.3 1.4 -0.2
v 0.4 1.4 -0.2
v 0.5 1.4 -0.2
v 0.7 1.4 -0.2
v 0.8 1.4 -0.2
v -0.2 1.4 -0.3
v -0.1 1.4 -0.3
v 0.2 1.4 -0.3
v 0.3 1.4 -0.3
v -0.6 1.5 -0.1
v -0.4 1.5 -0.1
v 0.5 1.5 -0.1
v 0.7 1.5 -0.1
v -0.6 1.5 -0.2
v -0.4 1.5 -0.2
v 0.5 1.5 -0.2
v 0.7 1.5 -0.2
v 0 1.6 -0.1
v 0.1 1.6 -0.1
v 0 1.6 -0.2
v 0.1 1.6 -0.2
v -0.7 1.7 -0.1
v -0.6 1.7 -0.1
v -0.4 1.7 -0.1
v -0.3 1.7 -0.1
v -0.1 1.7 -0.1
v 0 1.7 -0.1
v 0.1 1.7 -0.1
v 0.2 1.7 -0.1
v 0.4 1.7 -0.1
v 0.5 1.7 -0.1
v 0.7 1.7 -0.1
v 0.8 1.7 -0.1
v -0.7 1.7 -0.2
v -0.6 1.7 -0.2
v -0.4 1.7 -0.2
v -0.3 1.7 -0.2
v -0.1 1.7 -0.2
v 0 1.7 -0.2
v 0.1 1.7 -0.2
v 0.2 1.7 -0.2
v 0.4 1.7 -0.2
v 0.5 1.7 -0.2
v 0.7 1.7 -0.2
v 0.8 1.7 -0.2
v -0.8 1.8 -0.1
v -0.7 1.8 -0.1
v -0.3 1.8 -0.1
v -0.2 1.8 -0.1
v 0 1.8 -0.1
v 0.1 1.8 -0.1
v 0.3 1.8 -0.1
v 0.4 1.8 -0.1
v 0.8 1.8 -0.1
v 0.9 1.8 -0.1
v -0.7 1.8 -0.2
v -0.3 1.8 -0.2
v -0.2 1.8 -0.2
v 0 1.8 -0.2
v 0.1 1.8 -0.2
v 0.3 1.8 -0.2
v 0.4 1.8 -0.2
v 0.8 1.8 -0.2
v -0.8 1.8 -0.3
v -0.7 1.8 -0.3
v -0.3 1.8 -0.3
v -0.2 1.8 -0.3
v 0.3 1.8 -0.3
v 0.4 1.8 -0.3
v 0.8 1.8 -0.3
v 0.9 1.8 -0.3
v -0.7 1.9 -0.1
v -0.3 1.9 -0.1
v -0.2 1.9 -0.1
v 0 1.9 -0.1
v 0.1 1.9 -0.1
v 0.3 1.9 -0.1
v 0.4 1.9 -0.1
v 0.7 1.9 -0.1
v 0.8 1.9 -0.1
v -0.3 1.9 -0.2
v -0.2 1.9 -0.2
v 0 1.9 -0.2
v 0.1 1.9 -0.2
v 0.3 1.9 -0.2
v 0.4 1.9 -0.2
v -0.7 1.9 -0.3
v -0.3 1.9 -0.3
v -0.2 1.9 -0.3
v 0.3 1.9 -0.3
v 0.4 1.9 -0.3
v 0.8 1.9 -0.3
v -0.7 1.3 -0.1
v -0.3 1.3 -0.1
v -0.2 1.3 -0.1
v 0.3 1.3 -0.1
v 0.4 1.3 -0.1
v 0.8 1.3 -0.1
v -0.7 1.3 -0.2
v -0.3 1.3 -0.2
v -0.2 1.3 -0.2
v 0.3 1.3 -0.2
v 0.4 1.3 -0.2
v 0.8 1.3 -0.2
v -0.7 1.3 -0.3
v -0.3 1.3 -0.3
v -0.2 1.3 -0.3
v 0.3 1.3 -0.3
v 0.4 1.3 -0.3
v 0.8 1.3 -0.3
v -0.8 1.4 -0.1
v -0.7 1.4 -0.1
v -0.3 1.4 -0.1
v -0.2 1.4 -0.1
v 0.3 1.4 -0.1
v 0.4 1.4 -0.1
v 0.8 1.4 -0.1
v 0.9 1.4 -0.1
v -0.7 1.4 -0.2
v -0.3 1.4 -0.2
v -0.2 1.4 -0.2
v 0.3 1.4 -0.2
v 0.4 1.4 -0.2
v 0.8 1.4 -0.2
v -0.8 1.4 -0.3
v -0.7 1.4 -0.3
v -0.3 1.4 -0.3
v -0.2 1.4 -0.3
v 0.3 1.4 -0.3
v 0.4 1.4 -0.3
v 0.8 1.4 -0.3
v 0.9 1.4 -0.3
v -0.7 1.5 -0.1
v -0.6 1.5 -0.1
v -0.4 1.5 -0.1
v -0.3 1.5 -0.1
v 0.4 1.5 -0.1
v 0.5 1.5 -0.1
v 0.7 1.5 -0.1
v 0.8 1.5 -0.1
v -0.7 1.5 -0.2
v -0.6 1.5 -0.2
v -0.4 1.5 -0.2
v -0.3 1.5 -0.2
v 0.4 1.5 -0.2
v 0.5 1.5 -0.2
v 0.7 1.5 -0.2
v 0.8 1.5 -0.2
v -0.6 1.7 -0.1
v -0.4 1.7 -0.1
v 0 1.7 -0.1
v 0.1 1.7 -0.1
v 0.5 1.7 -0.1
v 0.7 1.7 -0.1
v -0.6 1.7 -0.2
v -0.4 1.7 -0.2
v 0 1.7 -0.2
v 0.1 1.7 -0.2
v 0.5 1.7 -0.2
v 0.7 1.7 -0.2
v -0.7 1.8 -0.1
v -0.6 1.8 -0.1
v -0.4 1.8 -0.1
v -0.3 1.8 -0.1
v -0.2 1.8 -0.1
v -0.1 1.8 -0.1
v 0 1.8 -0.1
v 0.1 1.8 -0.1
v 0.2 1.8 -0.1
v 0.3 1.8 -0.1
v 0.4 1.8 -0.1
v 0.5 1.8 -0.1
v 0.7 1.8 -0.1
v 0.8 1.8 -0.1
v -0.7 1.8 -0.2
v -0.6 1.8 -0.2
v -0.4 1.8 -0.2
v -0.3 1.8 -0.2
v -0.2 1.8 -0.2
v -0.1 1.8 -0.2
v 0 1.8 -0.2
v 0.1 1.8 -0.2
v 0.2 1.8 -0.2
v 0.3 1.8 -0.2
v 0.4 1.8 -0.2
v 0.5 1.8 -0.2
v 0.7 1.8 -0.2
v 0.8 1.8 -0.2
v -0.2 1.8 -0.3
v -0.1 1.8 -0.3
v 0.2 1.8 -0.3
v 0.3 1.8 -0.3
v -0.9 1.9 0.1
v -0.8 1.9 0.1
v 0.8 1.9 0.1
v 0.9 1.9 0.1
v 0.8 1.9 0
v 0.9 1.9 0
v 1 1.9 0
v -0.9 1.9 -0.3
v -0.8 1.9 -0.3
v 0.9 1.9 -0.3
v 1 1.9 -0.3
v -0.8 2 0.1
v 0.8 2 0.1
v 0.8 2 0
v 0.9 2 0
v -0.8 2 -0.3
v 0.9 2 -0.3

# faces
f 3/2/1 2/2/1 1/2/1
f 4/2/1 2/2/1 3/2/1
f 7/2/1 6/2/1 5/2/1
f 8/2/1 6/2/1 7/2/1
f 11/2/1 10/2/1 9/2/1
f 12/2/1 10/2/1 11/2/1
f 15/4/1 14/4/1 13/4/1
f 16/4/1 14/4/1 15/4/1
f 19/4/1 18/4/1 17/4/1
f 20/4/1 18/4/1 19/4/1
f 23/4/1 22/4/1 21/4/1
f 24/4/1 22/4/1 23/4/1
f 27/4/1 26/4/1 25/4/1
f 28/4/1 26/4/1 27/4/1
f 31/4/1 30/4/1 29/4/1
f 32/4/1 30/4/1 31/4/1
f 36/3/1 34/3/1 33/3/1
f 37/2/1 35/2/1 34/2/1
f 37/3/1 34/3/1 36/3/1
f 38/2/1 35/2/1 37/2/1
f 42/3/1 40/3/1 39/3/1
f 43/2/1 41/2/1 40/2/1
f 43/3/1 40/3/1 42/3/1
f 44/2/1 41/2/1 43/2/1
f 48/3/1 46/3/1 45/3/1
f 49/2/1 47/2/1 46/2/1
f 49/3/1 46/3/1 48/3/1
f 50/2/1 47/2/1 49/2/1
f 53/4/1 52/4/1 51/4/1
f 54/4/1 52/4/1 53/4/1
f 57/4/1 56/4/1 55/4/1
f 58/4/1 56/4/1 57/4/1
f 61/4/1 60/4/1 59/4/1
f 62/4/1 60/4/1 61/4/1
f 66/3/1 64/3/1 63/3/1
f 67/3/1 64/3/1 66/3/1
f 68/2/1 65/2/1 64/2/1
f 68/3/1 64/3/1 67/3/1
f 69/2/1 65/2/1 68/2/1
f 70/2/1 65/2/1 69/2/1
f 74/3/1 72/3/1 71/3/1
f 75/2/1 73/2/1 72/2/1
f 75/3/1 72/3/1 74/3/1
f 76/2/1 73/2/1 75/2/1
f 80/3/1 78/3/1 77/3/1
f 81/2/1 79/2/1 78/2/1
f 81/3/1 78/3/1 80/3/1
f 82/2/1 79/2/1 81/2/1
f 85/4/1 84/4/1 83/4/1
f 86/4/1 84/4/1 85/4/1
f 89/4/1 88/4/1 87/4/1
f 90/4/1 88/4/1 89/4/1
f 93/4/1 92/4/1 91/4/1
f 94/4/1 92/4/1 93/4/1
f 97/4/1 96/4/1 95/4/1
f 98/4/1 96/4/1 97/4/1
f 101/4/1 100/4/1 99/4/1
f 102/4/1 100/4/1 101/4/1
f 106/2/1 104/2/1 103/2/1
f 106/2/1 105/2/1 104/2/1
f 107/2/1 105/2/1 106/2/1
f 108/2/1 105/2/1 107/2/1
f 112/2/1 110/2/1 109/2/1
f 112/2/1 111/2/1 110/2/1
f 113/2/1 111/2/1 112/2/1
f 116/2/1 115/2/1 114/2/1
f 117/2/1 115/2/1 116/2/1
f 118/2/2 119/2/2 120/2/2
f 120/2/2 119/2/2 121/2/2
f 122/2/2 123/2/2 125/2/2
f 123/2/2 124/2/2 125/2/2
f 125/2/2 124/2/2 126/2/2
f 126/2/2 124/2/2 127/2/2
f 128/2/2 129/2/2 131/2/2
f 129/2/2 130/2/2 131/2/2
f 131/2/2 130/2/2 132/2/2
f 133/4/2 134/4/2 135/4/2
f 135/4/2 134/4/2 136/4/2
f 137/4/2 138/4/2 139/4/2
f 139/4/2 138/4/2 140/4/2
f 141/4/2 142/4/2 143/4/2
f 143/4/2 142/4/2 144/4/2
f 145/4/2 146/4/2 147/4/2
f 147/4/2 146/4/2 148/4/2
f 149/4/2 150/4/2 151/4/2
f 151/4/2 150/4/2 152/4/2
f 153/3/2 154/3/2 156/3/2
f 154/2/2 155/2/2 157/2/2
f 156/3/2 154/3/2 157/3/2
f 157/2/2 155/2/2 158/2/2
f 159/3/2 160/3/2 162/3/2
f 160/2/2 161/2/2 163/2/2
f 162/3/2 160/3/2 163/3/2
f 163/2/2 161/2/2 164/2/2
f 165/3/2 166/3/2 168/3/2
f 166/2/2 167/2/2 169/2/2
f 168/3/2 166/3/2 169/3/2
f 169/2/2 167/2/2 170/2/2
f 170/2/2 167/2/2 171/2/2
f 172/4/2 173/4/2 174/4/2
f 174/4/2 173/4/2 175/4/2
f 176/4/2 177/4/2 178/4/2
f 178/4/2 177/4/2 179/4/2
f 180/4/2 181/4/2 182/4/2
f 182/4/2 181/4/2 183/4/2
f 184/3/2 185/3/2 187/3/2
f 187/3/2 185/3/2 188/3/2
f 185/2/2 186/2/2 189/2/2
f 188/3/2 185/3/2 189/3/2
f 189/2/2 186/2/2 190/2/2
f 191/3/2 192/3/2 194/3/2
f 192/2/2 193/2/2 195/2/2
f 194/3/2 192/3/2 195/3/2
f 195/2/2 193/2/2 196/2/2
f 197/3/2 198/3/2 200/3/2
f 198/2/2 199/2/2 201/2/2
f 200/3/2 198/3/2 201/3/2
f 201/2/2 199/2/2 202/2/2
f 203/4/2 204/4/2 205/4/2
f 205/4/2 204/4/2 206/4/2
f 207/4/2 208/4/2 209/4/2
f 209/4/2 208/4/2 210/4/2
f 211/4/2 212/4/2 213/4/2
f 213/4/2 212/4/2 214/4/2
f 215/2/2 216/2/2 217/2/2
f 217/2/2 216/2/2 218/2/2
f 219/4/2 220/4/2 221/4/2
f 221/4/2 220/4/2 222/4/2
f 223/4/2 224/4/2 225/4/2
f 225/4/2 224/4/2 226/4/2
f 227/2/2 228/2/2 229/2/2
f 229/2/2 228/2/2 230/2/2
f 231/2/2 232/2/2 234/2/2
f 234/2/2 232/2/2 235/2/2
f 233/2/2 234/2/2 236/2/2
f 236/2/2 234/2/2 237/2/2
f 237/2/2 238/2/2 239/2/2
f 239/2/2 238/2/2 240/2/2
f 241/2/2 242/2/2 243/2/2
f 243/2/2 242/2/2 244/2/2
f 248/2/3 246/2/3 245/2/3
f 249/2/3 246/2/3 248/2/3
f 251/2/3 248/2/3 247/2/3
f 251/2/3 250/2/3 249/2/3
f 251/2/3 249/2/3 248/2/3
f 252/2/3 250/2/3 251/2/3
f 253/2/3 250/2/3 252/2/3
f 254/2/3 250/2/3 253/2/3
f 255/2/3 253/2/3 252/2/3
f 256/2/3 253/2/3 255/2/3
f 261/2/3 258/2/3 257/2/3
f 262/2/3 258/2/3 261/2/3
f 263/2/3 260/2/3 259/2/3
f 264/2/3 260/2/3 263/2/3
f 265/2/3 263/2/3 262/2/3
f 266/2/3 263/2/3 265/2/3
f 267/3/4 268/3/4 270/3/4
f 270/3/4 268/3/4 271/3/4
f 271/3/4 268/3/4 272/3/4
f 272/3/4 268/3/4 273/3/4
f 269/3/4 270/3/4 275/3/4
f 271/3/4 272/3/4 276/3/4
f 276/3/4 272/3/4 277/3/4
f 273/3/4 274/3/4 278/3/4
f 269/3/4 275/3/4 279/3/4
f 275/3/4 276/3/4 279/3/4
f 279/3/4 276/3/4 280/3/4
f 277/3/4 278/3/4 281/3/4
f 278/3/4 274/3/4 282/3/4
f 281/3/4 278/3/4 282/3/4
f 269/3/4 279/3/4 283/3/4
f 283/3/4 279/3/4 284/3/4
f 280/3/4 281/3/4 285/3/4
f 285/3/4 281/3/4 286/3/4
f 282/3/4 274/3/4 287/3/4
f 287/3/4 274/3/4 288/3/4
f 285/3/4 286/3/4 290/3/4
f 286/3/4 287/3/4 290/3/4
f 284/3/4 285/3/4 290/3/4
f 290/3/4 287/3/4 291/3/4
f 289/3/4 290/3/4 293/3/4
f 291/3/4 292/3/4 295/3/4
f 293/3/4 294/3/4 296/3/4
f 296/3/4 294/3/4 297/3/4
f 297/3/4 294/3/4 298/3/4
f 295/3/4 292/3/4 299/3/4
f 299/3/4 292/3/4 300/3/4
f 296/2/4 297/2/4 301/2/4
f 298/2/4 299/2/4 302/2/4
f 302/2/4 299/2/4 303/2/4
f 289/3/4 293/3/4 305/3/4
f 293/3/4 296/3/4 305/3/4
f 301/2/4 302/2/4 306/2/4
f 305/3/4 296/3/4 306/3/4
f 296/2/4 301/2/4 306/2/4
f 306/2/4 302/2/4 307/2/4
f 303/2/4 304/2/4 308/2/4
f 289/3/4 305/3/4 309/3/4
f 309/3/4 305/3/4 310/3/4
f 308/2/4 304/2/4 312/2/4
f 312/2/4 304/2/4 313/2/4
f 310/3/4 311/3/4 315/3/4
f 311/2/4 312/2/4 316/2/4
f 315/3/4 311/3/4 316/3/4
f 316/2/4 312/2/4 317/2/4
f 317/2/4 312/2/4 318/2/4
f 314/3/4 315/3/4 320/3/4
f 316/2/4 317/2/4 321/2/4
f 321/2/4 317/2/4 322/2/4
f 318/2/4 319/2/4 323/2/4
f 314/3/4 320/3/4 324/3/4
f 320/3/4 321/3/4 324/3/4
f 324/3/4 321/3/4 325/3/4
f 322/2/4 323/2/4 326/2/4
f 323/2/4 319/2/4 327/2/4
f 326/2/4 323/2/4 327/2/4
f 327/2/4 319/2/4 328/2/4
f 314/3/4 324/3/4 329/3/4
f 329/3/4 324/3/4 330/3/4
f 325/3/4 326/3/4 331/3/4
f 331/3/4 326/3/4 332/3/4
f 327/3/4 328/3/4 333/3/4
f 333/3/4 328/3/4 334/3/4
f 331/3/4 332/3/4 335/3/4
f 332/3/4 333/3/4 335/3/4
f 330/3/4 331/3/4 335/3/4
f 335/3/4 333/3/4 336/3/4
f 337/4/4 338/4/4 341/4/4
f 341/4/4 338/4/4 342/4/4
f 339/4/4 340/4/4 343/4/4
f 343/4/4 340/4/4 344/4/4
f 342/4/4 343/4/4 346/4/4
f 346/4/4 343/4/4 347/4/4
f 345/4/4 346/4/4 349/4/4
f 349/4/4 346/4/4 350/4/4
f 347/4/4 348/4/4 351/4/4
f 351/4/4 348/4/4 352/4/4
f 353/4/4 354/4/4 356/4/4
f 356/4/4 354/4/4 357/4/4
f 355/4/4 356/4/4 359/4/4
f 359/4/4 356/4/4 360/4/4
f 357/4/4 358/4/4 361/4/4
f 361/4/4 358/4/4 362/4/4
f 360/4/4 361/4/4 363/4/4
f 363/4/4 361/4/4 364/4/4
f 365/4/4 366/4/4 369/4/4
f 369/4/4 366/4/4 370/4/4
f 367/4/4 368/4/4 371/4/4
f 371/4/4 368/4/4 372/4/4
f 370/4/4 371/4/4 374/4/4
f 374/4/4 371/4/4 375/4/4
f 373/4/4 374/4/4 377/4/4
f 377/4/4 374/4/4 378/4/4
f 375/4/4 376/4/4 379/4/4
f 379/4/4 376/4/4 380/4/4
f 381/2/4 382/2/4 384/2/4
f 384/2/4 382/2/4 385/2/4
f 385/2/4 382/2/4 386/2/4
f 386/2/4 382/2/4 387/2/4
f 383/2/4 384/2/4 389/2/4
f 384/2/4 385/2/4 389/2/4
f 389/2/4 385/2/4 390/2/4
f 387/2/4 388/2/4 391/2/4
f 386/2/4 387/2/4 391/2/4
f 391/2/4 388/2/4 392/2/4
f 383/2/4 389/2/4 393/2/4
f 392/2/4 388/2/4 396/2/4
f 393/2/4 394/2/4 397/2/4
f 383/2/4 393/2/4 397/2/4
f 397/2/4 394/2/4 398/2/4
f 395/2/4 396/2/4 399/2/4
f 396/2/4 388/2/4 400/2/4
f 399/2/4 396/2/4 400/2/4
f 398/2/4 399/2/4 401/2/4
f 401/2/4 399/2/4 402/2/4
f 383/2/4 397/2/4 405/2/4
f 403/2/4 404/2/4 406/2/4
f 406/2/4 404/2/4 407/2/4
f 400/2/4 388/2/4 408/2/4
f 383/2/4 405/2/4 409/2/4
f 405/2/4 406/2/4 409/2/4
f 409/2/4 406/2/4 410/2/4
f 407/2/4 408/2/4 411/2/4
f 408/2/4 388/2/4 412/2/4
f 411/2/4 408/2/4 412/2/4
f 383/2/4 409/2/4 413/2/4
f 412/2/4 388/2/4 416/2/4
f 413/2/4 414/2/4 417/2/4
f 383/2/4 413/2/4 417/2/4
f 417/2/4 414/2/4 418/2/4
f 418/2/4 414/2/4 419/2/4
f 415/2/4 416/2/4 420/2/4
f 416/2/4 388/2/4 421/2/4
f 420/2/4 416/2/4 421/2/4
f 421/2/4 388/2/4 422/2/4
f 418/2/4 419/2/4 423/2/4
f 419/2/4 420/2/4 423/2/4
f 420/2/4 421/2/4 423/2/4
f 423/2/4 421/2/4 424/2/4
f 427/2/5 426/2/5 425/2/5
f 428/2/5 426/2/5 427/2/5
f 429/2/5 426/2/5 428/2/5
f 430/2/5 426/2/5 429/2/5
f 432/2/5 427/2/5 425/2/5
f 432/1/5 428/1/5 427/1/5
f 433/1/5 428/1/5 432/1/5
f 434/1/5 430/1/5 429/1/5
f 435/2/5 431/2/5 430/2/5
f 435/1/5 430/1/5 434/1/5
f 436/2/5 432/2/5 425/2/5
f 436/3/5 433/3/5 432/3/5
f 437/1/5 428/1/5 433/1/5
f 437/3/5 433/3/5 436/3/5
f 438/3/5 429/3/5 428/3/5
f 438/1/5 428/1/5 437/1/5
f 439/1/5 434/1/5 429/1/5
f 439/3/5 429/3/5 438/3/5
f 440/3/5 435/3/5 434/3/5
f 440/1/5 434/1/5 439/1/5
f 441/2/5 431/2/5 435/2/5
f 441/3/5 435/3/5 440/3/5
f 442/2/5 438/2/5 437/2/5
f 442/2/5 436/2/5 425/2/5
f 442/2/5 441/2/5 440/2/5
f 442/2/5 439/2/5 438/2/5
f 442/2/5 440/2/5 439/2/5
f 442/2/5 437/2/5 436/2/5
f 443/2/5 431/2/5 441/2/5
f 443/2/5 441/2/5 442/2/5
f 448/2/5 447/2/5 446/2/5
f 449/2/5 447/2/5 448/2/5
f 451/2/5 445/2/5 444/2/5
f 452/2/5 445/2/5 451/2/5
f 453/2/5 450/2/5 449/2/5
f 454/2/5 450/2/5 453/2/5
f 467/4/5 456/4/5 455/4/5
f 468/4/5 456/4/5 467/4/5
f 469/4/5 458/4/5 457/4/5
f 470/4/5 458/4/5 469/4/5
f 471/3/5 460/3/5 459/3/5
f 472/3/5 460/3/5 471/3/5
f 473/3/5 462/3/5 461/3/5
f 474/3/5 462/3/5 473/3/5
f 475/4/5 464/4/5 463/4/5
f 476/4/5 464/4/5 475/4/5
f 477/4/5 466/4/5 465/4/5
f 478/4/5 466/4/5 477/4/5
f 479/2/5 472/2/5 471/2/5
f 480/2/5 472/2/5 479/2/5
f 481/2/5 474/2/5 473/2/5
f 482/2/5 474/2/5 481/2/5
f 487/4/5 484/4/5 483/4/5
f 488/4/5 484/4/5 487/4/5
f 489/4/5 486/4/5 485/4/5
f 490/4/5 486/4/5 489/4/5
f 493/4/5 492/4/5 491/4/5
f 494/4/5 492/4/5 493/4/5
f 507/4/5 496/4/5 495/4/5
f 508/4/5 496/4/5 507/4/5
f 509/4/5 498/4/5 497/4/5
f 510/4/5 498/4/5 509/4/5
f 511/4/5 500/4/5 499/4/5
f 512/4/5 500/4/5 511/4/5
f 513/4/5 502/4/5 501/4/5
f 514/4/5 502/4/5 513/4/5
f 515/4/5 504/4/5 503/4/5
f 516/4/5 504/4/5 515/4/5
f 517/4/5 506/4/5 505/4/5
f 518/4/5 506/4/5 517/4/5
f 529/2/5 520/2/5 519/2/5
f 530/3/5 522/3/5 521/3/5
f 531/3/5 522/3/5 530/3/5
f 532/4/5 524/4/5 523/4/5
f 533/4/5 524/4/5 532/4/5
f 534/3/5 526/3/5 525/3/5
f 535/3/5 526/3/5 534/3/5
f 536/2/5 528/2/5 527/2/5
f 537/2/5 529/2/5 519/2/5
f 538/2/5 529/2/5 537/2/5
f 539/2/5 531/2/5 530/2/5
f 540/2/5 531/2/5 539/2/5
f 541/2/5 535/2/5 534/2/5
f 542/2/5 535/2/5 541/2/5
f 543/2/5 528/2/5 536/2/5
f 544/2/5 528/2/5 543/2/5
f 554/2/5 546/2/5 545/2/5
f 555/2/5 548/2/5 547/2/5
f 556/2/5 548/2/5 555/2/5
f 557/2/5 550/2/5 549/2/5
f 558/2/5 550/2/5 557/2/5
f 559/2/5 553/2/5 552/2/5
f 559/2/5 552/2/5 551/2/5
f 560/2/5 554/2/5 545/2/5
f 561/2/5 554/2/5 560/2/5
f 562/2/5 558/2/5 557/2/5
f 562/2/5 556/2/5 555/2/5
f 562/2/5 557/2/5 556/2/5
f 563/2/5 558/2/5 562/2/5
f 564/2/5 553/2/5 559/2/5
f 565/2/5 553/2/5 564/2/5
f 566/3/6 567/3/6 572/3/6
f 572/3/6 567/3/6 573/3/6
f 568/3/6 569/3/6 574/3/6
f 574/3/6 569/3/6 575/3/6
f 570/3/6 571/3/6 576/3/6
f 576/3/6 571/3/6 577/3/6
f 572/2/6 573/2/6 578/2/6
f 578/2/6 573/2/6 579/2/6
f 574/2/6 575/2/6 580/2/6
f 580/2/6 575/2/6 581/2/6
f 576/2/6 577/2/6 582/2/6
f 582/2/6 577/2/6 583/2/6
f 584/2/6 585/2/6 592/2/6
f 586/3/6 587/3/6 593/3/6
f 593/3/6 587/3/6 594/3/6
f 588/3/6 589/3/6 595/3/6
f 595/3/6 589/3/6 596/3/6
f 590/2/6 591/2/6 597/2/6
f 584/2/6 592/2/6 598/2/6
f 598/2/6 592/2/6 599/2/6
f 593/2/6 594/2/6 600/2/6
f 600/2/6 594/2/6 601/2/6
f 595/2/6 596/2/6 602/2/6
f 602/2/6 596/2/6 603/2/6
f 597/2/6 591/2/6 604/2/6
f 604/2/6 591/2/6 605/2/6
f 606/4/6 607/4/6 614/4/6
f 614/4/6 607/4/6 615/4/6
f 608/4/6 609/4/6 616/4/6
f 616/4/6 609/4/6 617/4/6
f 610/4/6 611/4/6 618/4/6
f 618/4/6 611/4/6 619/4/6
f 612/4/6 613/4/6 620/4/6
f 620/4/6 613/4/6 621/4/6
f 622/4/6 623/4/6 628/4/6
f 628/4/6 623/4/6 629/4/6
f 624/4/6 625/4/6 630/4/6
f 630/4/6 625/4/6 631/4/6
f 626/4/6 627/4/6 632/4/6
f 632/4/6 627/4/6 633/4/6
f 634/4/6 635/4/6 648/4/6
f 648/4/6 635/4/6 649/4/6
f 636/4/6 637/4/6 650/4/6
f 650/4/6 637/4/6 651/4/6
f 638/3/6 639/3/6 652/3/6
f 639/4/6 640/4/6 653/4/6
f 652/3/6 639/3/6 653/3/6
f 653/4/6 640/4/6 654/4/6
f 641/4/6 642/4/6 655/4/6
f 642/3/6 643/3/6 656/3/6
f 655/4/6 642/4/6 656/4/6
f 656/3/6 643/3/6 657/3/6
f 644/4/6 645/4/6 658/4/6
f 658/4/6 645/4/6 659/4/6
f 646/4/6 647/4/6 660/4/6
f 660/4/6 647/4/6 661/4/6
f 652/2/6 653/2/6 662/2/6
f 662/2/6 653/2/6 663/2/6
f 656/2/6 657/2/6 664/2/6
f 664/2/6 657/2/6 665/2/6
f 668/2/6 669/2/6 670/2/6
f 670/2/6 669/2/6 671/2/6
f 666/2/6 667/2/6 673/2/6
f 673/2/6 667/2/6 674/2/6
f 671/2/6 672/2/6 675/2/6
f 675/2/6 672/2/6 676/2/6
f 677/2/6 678/2/6 679/2/6
f 677/2/6 679/2/6 681/2/6
f 679/2/6 680/2/6 681/2/6
f 681/2/6 680/2/6 682/2/6
